<svg width="23" height="25" viewBox="0 0 23 25" fill="none" xmlns="http://www.w3.org/2000/svg">
<path d="M3.20327 8.10268C3.42 7.53397 3.73766 7.01722 4.13812 6.58194C4.53857 6.14666 5.01398 5.80138 5.5372 5.5658C6.06042 5.33023 6.62121 5.20898 7.18754 5.20898C7.75387 5.20898 8.31465 5.33023 8.83787 5.5658C9.36109 5.80138 9.8365 6.14666 10.237 6.58194L11.5 7.95486L12.7631 6.58194C13.5719 5.70286 14.6688 5.209 15.8125 5.209C16.9563 5.209 18.0532 5.70286 18.862 6.58194C19.6707 7.46102 20.1251 8.65332 20.1251 9.89652C20.1251 11.1397 19.6707 12.332 18.862 13.2111L11.5 21.2132L4.13812 13.2111C3.73766 12.7758 3.42 12.2591 3.20327 11.6904C2.98655 11.1216 2.875 10.5121 2.875 9.89652C2.875 9.28095 2.98655 8.6714 3.20327 8.10268Z" fill="#EF5DA8" stroke="#EF5DA8" stroke-width="1.33333" stroke-linecap="round" stroke-linejoin="round"/>
</svg>
